<?xml version="1.0" encoding="utf-8"?>
<!-- Generator: Adobe Illustrator 16.0.0, SVG Export Plug-In . SVG Version: 6.00 Build 0)  -->
<!DOCTYPE svg PUBLIC "-//W3C//DTD SVG 1.1//EN" "http://www.w3.org/Graphics/SVG/1.1/DTD/svg11.dtd">
<svg version="1.1" id="Layer_1" xmlns="http://www.w3.org/2000/svg" xmlns:xlink="http://www.w3.org/1999/xlink" x="0px" y="0px"
	 width="1024px" height="1024px" viewBox="0 0 1024 1024" enable-background="new 0 0 1024 1024" xml:space="preserve">
<rect x="-0.001" fill="#FFFFFF" width="1024.001" height="1024"/>
<g>
	<path d="M1023.994,883.773c0-119.544,0-239.093,0-358.635c0-48.086,0-96.175,0-144.261c0-4.098,0-8.198,0-12.298
		c0-14.245-8.013-23.325-18.817-31.032c-23.175-16.529-46.351-33.056-69.525-49.584c-11.493-8.196-22.984-16.393-34.476-24.588
		c0-17.933,0-35.866,0-53.798c0-20.674,2.058-42.375-10.426-60.409c-12.024-17.379-31.133-27.559-52.35-27.559
		c-3.404,0-6.811,0-10.215,0c-41.854,0-83.704,0-125.556,0c-0.074,0-0.149,0-0.224,0c-39.129-27.907-78.258-55.814-117.385-83.721
		C545.353,9.596,488.646,8.54,446.731,32.62c-19.63,11.276-37.662,26.577-56.056,39.694c-23.038,16.432-46.076,32.863-69.113,49.294
		c-5.835,0-11.671,0-17.505,0c-37.865,0-75.731,0-113.598,0c-1.994,0-3.987,0-5.98,0c-33.506,0-61.688,28.192-61.688,61.696
		c0,13.13,0,26.261,0,39.392c0,13.559,0,27.119,0,40.677C87.62,288.457,52.45,313.541,17.28,338.625
		c-17.749,12.657-17.309,26.407-17.309,44.529c0,19.693,0,39.39,0,59.084c0,128.296,0,256.589,0,384.886c0,19.696,0,39.39,0,59.086
		c0,17.688,0.041,35.162,6.462,52.083c16.011,42.193,55.776,70.165,101.113,70.165c8.678,0,17.355,0,26.033,0
		c109.534,0,219.068,0,328.602,0c125.75,0,251.5,0,377.249,0c25.829,0,51.659,0,77.488,0c48.13,0,89.729-32.235,103.275-78.073
		C1024.664,915.262,1023.994,899.341,1023.994,883.773z M960.189,383.526c0,12.47,0,24.94,0,37.41
		c-19.672,14.028-39.343,28.058-59.014,42.088c0-40.53,0-81.058,0-121.587C920.847,355.465,940.518,369.496,960.189,383.526z
		 M839.193,185.59c-0.127-0.072-0.213-0.113-0.329-0.177c0.012,0,0.021,0,0.033,0C839.005,185.476,839.075,185.523,839.193,185.59z
		 M838.12,185.022c-0.004-0.002-0.006-0.003-0.011-0.005c-0.006-0.014-0.015-0.03-0.021-0.043c0.027,0.001,0.046,0.001,0.07,0.003
		c0.032,0.02,0.083,0.047,0.115,0.067C838.22,185.036,838.176,185.03,838.12,185.022z M836.865,184.835c0,0.001,0,0.002,0.002,0.004
		c-0.066-0.009-0.122-0.017-0.192-0.028C836.749,184.822,836.795,184.825,836.865,184.835z M471.15,92.981
		c2.559-1.825,5.116-3.596,7.784-5.268c8.042-5.041,18.86-7.611,26.875-8.185c5.548-0.397,11.118-0.136,16.65,0.366
		c-2.689-0.166,4.84,1.008,5.413,1.134c2.952,0.655,5.833,1.581,8.707,2.508c0.648,0.21,1.167,0.371,1.593,0.5
		c0.427,0.22,0.99,0.5,1.738,0.861c2.632,1.264,5.111,2.808,7.579,4.355c1.185,0.742,2.328,1.589,3.471,2.404
		c13.999,9.983,27.998,19.968,41.995,29.951c-53.98,0-107.962,0-161.945,0C444.39,112.066,457.77,102.524,471.15,92.981z
		 M204.212,185.414c41.494,0,82.989,0,124.483,0c2.611,0.337,5.237,0.358,7.814,0c2.185,0,4.369,0,6.553,0
		c114.799,0,229.599,0,344.397,0c2.576,0.357,5.197,0.335,7.805,0c14.756,0,29.511,0,44.266,0c32.609,0,65.218,0,97.826,0
		c0.025,0.022,0.048,0.043,0.072,0.063c0.036,2.689-0.058,5.394-0.058,8.072c0,22.793,0,45.586,0,68.378
		c0,82.203,0,164.404,0,246.604c-33.431,23.843-66.862,47.687-100.295,71.532c-49.071,34.998-98.146,69.997-147.218,104.997
		c-12.129,8.65-24.257,17.298-36.385,25.948c-4.572,3.264-9.231,6.237-14.229,8.804c0.586-0.438-5.024,1.87-5.526,2.034
		c-2.89,0.934-5.859,1.585-8.819,2.244c-0.858,0.189-1.506,0.344-1.994,0.464c-0.451,0.038-0.994,0.088-1.668,0.157
		c-3.073,0.308-6.166,0.351-9.253,0.396c-3.088,0.045-6.175-0.176-9.253-0.396c-0.392-0.029-0.731-0.053-1.043-0.071
		c-0.504-0.128-1.326-0.304-2.618-0.55c-2.982-0.566-5.905-1.405-8.818-2.244c-1.639-0.5-3.255-1.069-4.864-1.659
		c-0.372-0.173-0.799-0.375-1.33-0.626c-9.974-4.789-19.122-12.516-28.083-18.907c-17.686-12.614-35.37-25.225-53.053-37.837
		c-53.621-38.245-107.244-76.486-160.867-114.733c-18.486-13.184-36.972-26.367-55.458-39.553c0-99.65,0-199.303,0-298.954
		c0-7.325,0-14.65,0-21.974c0-0.624,0-1.246,0-1.869c0.059-0.087,0.119-0.198,0.178-0.321c0.802,0,1.604,0,2.404,0
		C194.189,185.414,199.2,185.414,204.212,185.414z M186.596,183.636c0-0.008,0-0.016,0-0.024c0.018-0.075,0.031-0.125,0.05-0.203
		C186.624,183.498,186.615,183.553,186.596,183.636z M122.791,463.024c-19.672-14.03-39.343-28.06-59.014-42.09
		c0-12.468,0-24.938,0-37.408c19.671-14.031,39.342-28.061,59.014-42.091C122.791,381.966,122.791,422.494,122.791,463.024z
		 M956.971,918.703c-0.819,1.652-1.688,3.277-2.589,4.882c-0.312,0.555-2.709,4.041-2.941,4.579c-1.2,1.374-2.443,2.716-3.71,4.031
		c-0.723,0.744-5.173,4.258-5.838,4.91c-1.687,1.083-3.415,2.1-5.162,3.081c-0.502,0.282-2.925,1.286-4.224,1.841
		c-2.064,0.681-4.163,1.261-6.269,1.799c-0.615,0.156-3.568,0.533-4.925,0.726c-1.515,0.071-3.032,0.1-4.547,0.1
		c-2.774,0-5.548,0-8.32,0c-13.379,0-26.76,0-40.138,0c-50.544,0-101.085,0-151.626,0c-135.845,0-271.69,0-407.534,0
		c-50.801,0-101.603,0-152.404,0c-13.573,0-27.146,0-40.719,0c-2.887,0-5.773,0-8.659,0c-0.351,0-0.702,0-1.053,0
		c-0.657,0-5.234-0.347-5.8-0.254c-1.848-0.372-3.685-0.801-5.508-1.266c-0.683-0.173-5.517-1.907-5.346-1.678
		c-2.454-1.214-4.816-2.611-7.15-4.036c-0.723-0.443-1.22-0.729-1.616-0.95c-0.212-0.18-0.404-0.344-0.672-0.568
		c-2.092-1.742-3.988-3.707-5.875-5.667c-0.393-0.405-1.979-2.488-2.837-3.588c-1.157-1.775-2.23-3.604-3.267-5.45
		c-0.282-0.503-1.29-2.932-1.844-4.229c-0.68-2.063-1.259-4.161-1.794-6.264c-0.163-0.637-0.563-3.799-0.749-5.073
		c-0.053-1.24-0.078-2.524-0.078-3.56c0-2.584,0-5.167,0-7.75c0-16.582,0-33.164,0-49.744c0-61.488,0-122.973,0-184.457
		c0-53.707,0-107.413,0-161.121c63.637,45.387,127.273,90.773,190.91,136.159c49.073,34.998,98.146,69.999,147.219,104.997
		c12.127,8.65,24.257,17.301,36.385,25.95c30.899,22.04,69.972,26.97,106.544,18.853c19.084-4.237,34.386-14.247,49.803-25.244
		c16.095-11.477,32.191-22.959,48.286-34.437c52.465-37.418,104.93-74.836,157.394-112.257
		c53.292-38.008,106.581-76.014,159.873-114.021c0,53.001,0,106.003,0,159.006c0,61.727,0,123.457,0,185.188
		c0,16.85,0,33.702,0,50.555c0,2.756,0,5.512,0,8.269c0,0.654-0.355,5.36-0.259,5.9c-0.369,1.847-0.797,3.684-1.263,5.508
		C958.51,914.047,957.055,918.118,956.971,918.703z"/>
	<path d="M351.052,347.889c107.287,0,214.576,0,321.861,0c41.147,0,41.147-63.805,0-63.805c-107.285,0-214.574,0-321.861,0
		C309.906,284.084,309.906,347.889,351.052,347.889z"/>
	<path d="M351.052,469.115c107.287,0,214.576,0,321.861,0c41.147,0,41.147-63.806,0-63.806c-107.285,0-214.574,0-321.861,0
		C309.906,405.309,309.906,469.115,351.052,469.115z"/>
</g>
</svg>
